<svg width="127" height="81" viewBox="0 0 127 81" fill="none" xmlns="http://www.w3.org/2000/svg">
<path d="M70.8584 20.2093C70.8704 20.2471 70.8803 20.2849 70.8886 20.3226H84.0579V13.9572H68.8518L70.8584 20.2093Z" stroke="black" stroke-width="0.00075001"/>
<path d="M66.3761 13.9572H63.8922V20.3226H68.4189L66.3761 13.9572Z" stroke="black" stroke-width="0.00075001"/>
<path d="M92.6567 6.28563C91.0139 5.18865 89.0416 4.54608 86.9179 4.54608C84.4265 4.54608 82.1421 5.42719 80.3564 6.89344C80.5282 6.94885 80.6902 7.04407 80.8267 7.18059L82.4788 8.83324C82.939 9.29369 82.9388 10.04 82.4786 10.5C82.2484 10.73 81.9469 10.8451 81.6453 10.8451C81.3436 10.8451 81.0421 10.73 80.8118 10.4997L79.1597 8.84709C79.0249 8.71233 78.9307 8.55263 78.8751 8.38311C78.1076 9.32971 77.5045 10.4148 77.1071 11.5944H85.2456C85.8965 11.5944 86.4242 12.1222 86.4242 12.773V23.4365C91.5063 22.8619 95.4685 18.5373 95.4685 13.3048C95.468 10.5866 94.3967 8.1156 92.6567 6.28563ZM91.4076 19.4292C91.1776 19.6592 90.8758 19.7743 90.5743 19.7743C90.2725 19.7743 89.971 19.6592 89.7408 19.429L88.0887 17.7763C87.6285 17.3161 87.6287 16.5698 88.0892 16.1096C88.5496 15.6496 89.2957 15.6496 89.7559 16.1098L91.4081 17.7625C91.8683 18.2227 91.868 18.969 91.4076 19.4292ZM91.4078 8.84709L89.7557 10.4997C89.5257 10.73 89.2239 10.8451 88.9222 10.8451C88.6207 10.8451 88.3191 10.73 88.0889 10.5C87.6285 10.0398 87.6285 9.29369 88.0884 8.83324L89.7406 7.18059C90.2008 6.72039 90.9471 6.72014 91.4073 7.18034C91.868 7.64054 91.8683 8.38689 91.4078 8.84709Z" fill="#FFCC14" stroke="black" stroke-width="0.00075001"/>
<path d="M65.5736 24.4113V41.9995C65.6715 41.4473 66.1527 41.0279 66.733 41.0279C67.3839 41.0279 67.9116 41.5556 67.9116 42.2065V45.0645C67.9116 45.0745 67.9113 45.0846 67.9111 45.0947C67.9106 45.1214 67.8743 48.1582 69.7476 50.1007C70.792 51.1836 72.2756 51.7488 74.1577 51.7811C74.8086 51.7922 75.3272 52.3287 75.3161 52.9796C75.305 53.6237 74.7796 54.1383 74.1381 54.1383C74.1312 54.1383 74.1244 54.1383 74.1174 54.138C71.5771 54.0947 69.5302 53.2811 68.0343 51.7199C65.5443 49.1214 65.5486 45.3859 65.5542 45.0531V42.2073C65.5534 42.2232 65.5517 42.2388 65.5517 42.2546V45.101C65.5514 45.1103 65.5514 45.1221 65.5511 45.1365C65.5511 45.1473 65.5511 45.1609 65.5511 45.1748C65.5511 45.1786 65.5511 45.1816 65.5511 45.1856C65.5511 45.2012 65.5514 45.2189 65.5517 45.238C65.5517 45.242 65.5517 45.2461 65.5519 45.2504C65.5522 45.271 65.5527 45.2929 65.5532 45.3169C65.5532 45.3201 65.5532 45.3234 65.5534 45.3267C65.5539 45.3524 65.5547 45.3796 65.5557 45.409C65.5557 45.4098 65.5557 45.4108 65.5557 45.4116C65.559 45.506 65.5642 45.6176 65.5733 45.7463V47.8509C65.5887 47.9174 65.5985 47.9859 65.602 48.0561C65.7134 50.1733 66.4738 52.1075 67.6811 53.6743C69.4106 55.0506 71.6 55.8708 73.9746 55.8708C79.3368 55.8708 83.76 51.6932 84.0574 46.3544V24.4035L84.0552 24.4113H65.5736Z" fill="#86CAFD" stroke="black" stroke-width="0.00075001"/>
<path d="M57.1027 1.3864L47.7068 7.56549C47.1629 7.92318 47.0118 8.65391 47.3695 9.19773C47.5959 9.54207 47.9718 9.72897 48.3554 9.72897C48.5776 9.72897 48.8025 9.66625 49.002 9.53501L58.398 3.35592C58.9418 2.99824 59.0929 2.26751 58.7352 1.72368C58.3775 1.1796 57.6466 1.02872 57.1027 1.3864Z" fill="#FF651C" stroke="black" stroke-width="0.00075001"/>
<path d="M61.9401 2.74509V1.17859C61.9401 0.527708 61.4124 0 60.7615 0C60.1106 0 59.5829 0.527708 59.5829 1.17859V2.74509C59.5829 3.39597 60.1106 3.92368 60.7615 3.92368C61.4124 3.92368 61.9401 3.39597 61.9401 2.74509Z" fill="#FF651C" stroke="black" stroke-width="0.00075001"/>
<path d="M97.8254 13.305C97.8254 6.38259 92.1932 0.750854 85.2703 0.750854C78.9352 0.750854 73.6806 5.43297 72.8468 11.5997H68.0952L65.0179 2.01106C64.8191 1.39141 64.1554 1.04985 63.5355 1.24884C62.9156 1.44783 62.5745 2.11156 62.7733 2.73146L65.6196 11.6H62.7136C62.0627 11.6 61.535 12.1277 61.535 12.7786C61.535 12.7786 61.534 46.4272 61.535 46.4476C61.8619 52.6569 66.7113 57.6002 72.7965 58.171V67.7592L63.1997 72.7781C62.7189 73.0294 62.4718 73.5768 62.6012 74.1038C62.7307 74.6307 63.2033 75.0012 63.7458 75.0012H84.2045C84.7471 75.0012 85.2196 74.6307 85.3491 74.1038C85.4786 73.5768 85.2315 73.0297 84.7506 72.7781L75.1536 67.7594V58.1713C81.238 57.6005 86.0876 52.6569 86.4153 46.4478C86.4164 46.4272 86.4153 25.8045 86.4153 25.8045C92.8033 25.2239 97.8254 19.8413 97.8254 13.305ZM63.8922 13.9572H66.3763L68.4191 20.3226H63.8922V13.9572ZM79.407 72.6436H68.5428L73.9748 69.8027L79.407 72.6436ZM84.0579 24.4035V46.3536C83.7602 51.6922 79.3373 55.87 73.975 55.87C71.6005 55.87 69.4111 55.0498 67.6816 53.6735C65.5053 51.9415 64.0579 49.3287 63.8924 46.3541V22.6798H84.0582V24.4035H84.0579ZM84.0579 20.3226H70.8886C70.8803 20.2849 70.8705 20.2471 70.8584 20.2093L68.8519 13.9572H84.0579V20.3226ZM86.4239 23.4367V12.7733C86.4239 12.1224 85.8962 11.5947 85.2453 11.5947H77.1068H75.2295C76.0428 6.74708 80.2375 3.10803 85.2703 3.10803C88.1748 3.10803 90.7977 4.33045 92.6567 6.28562C94.3967 8.11534 95.468 10.5866 95.468 13.305C95.468 18.5378 91.506 22.8622 86.4239 23.4367Z" fill="#FF651C" stroke="black" stroke-width="0.00075001"/>
<path d="M79.1596 7.18036C78.8339 7.5058 78.7397 7.97406 78.8745 8.38338C78.9304 8.5529 79.0246 8.71235 79.1591 8.84736L80.8113 10.5C81.0415 10.7302 81.343 10.8453 81.6448 10.8453C81.9463 10.8453 82.2478 10.7302 82.478 10.5003C82.9385 10.0401 82.9385 9.29396 82.4783 8.83351L80.8261 7.18086C80.6896 7.04434 80.5276 6.94913 80.3558 6.89371C79.9485 6.76172 79.4836 6.85668 79.1596 7.18036Z" fill="#FF651C" stroke="black" stroke-width="0.00075001"/>
<path d="M89.7559 16.1096C89.2957 15.6491 88.5496 15.6491 88.0892 16.1093C87.6287 16.5695 87.6287 17.3159 88.0887 17.7761L89.7408 19.4287C89.971 19.6592 90.2728 19.7741 90.5743 19.7741C90.8758 19.7741 91.1776 19.659 91.4076 19.429C91.868 18.9688 91.868 18.2224 91.4078 17.7622L89.7559 16.1096Z" fill="#FF651C" stroke="black" stroke-width="0.00075001"/>
<path d="M89.7408 7.1806L88.0886 8.83325C87.6284 9.2937 87.6287 10.0401 88.0892 10.5C88.3191 10.73 88.6209 10.8451 88.9224 10.8451C89.2242 10.8451 89.5259 10.73 89.7559 10.4997L91.408 8.8471C91.8682 8.3869 91.868 7.64055 91.4078 7.18035C90.9473 6.72015 90.201 6.7204 89.7408 7.1806Z" fill="#FF651C" stroke="black" stroke-width="0.00075001"/>
<path d="M68.0342 51.7194C69.5302 53.2806 71.577 54.0942 74.1173 54.1375C74.1244 54.1378 74.1312 54.1378 74.138 54.1378C74.7795 54.1378 75.305 53.6232 75.3161 52.9791C75.3271 52.3282 74.8085 51.7914 74.1576 51.7806C72.2755 51.7484 70.7919 51.1831 69.7476 50.1002C67.8743 48.1577 67.9105 45.1212 67.911 45.0942C67.9113 45.0841 67.9115 45.0741 67.9115 45.064V42.2065C67.9115 41.5557 67.3838 41.028 66.7329 41.028C66.1528 41.028 65.6717 41.4474 65.5735 41.9995C65.5614 42.0667 65.5541 42.1358 65.5541 42.2068V45.0529C65.5486 45.3854 65.5443 49.1209 68.0342 51.7194Z" fill="#FF651C" stroke="black" stroke-width="0.00075001"/>
<path d="M92.72 69.94L92.7 69.48C92.38 69.44 91.98 69.36 91.5 69.24C91.3 69.0533 91.2 68.78 91.2 68.42C91.2 68.3 91.22 68.24 91.26 68.24C91.3133 68.24 91.4 68.2533 91.52 68.28C91.8 68.3733 92.1867 68.4467 92.68 68.5C92.6267 67.4867 92.5133 66.4667 92.34 65.44C92.18 64.4 92.0333 63.6133 91.9 63.08L91.7 62.28L93.44 61.46L93.96 61.78C94.16 62.9667 94.26 64.14 94.26 65.3C94.26 66.46 94.2267 67.54 94.16 68.54C95.96 68.46 97.4533 68.1533 98.64 67.62C98.6267 67.34 98.62 66.7067 98.62 65.72C98.62 64.72 98.7467 63.4067 99 61.78L99.52 61.46L101.22 62.28C100.607 63.8533 100.3 66.2733 100.3 69.54C100.3 71.9667 100.4 73.9933 100.6 75.62C100.6 75.66 100.547 75.68 100.44 75.68C100.093 75.68 99.8333 75.58 99.66 75.38C99.18 72.94 98.8733 70.8667 98.74 69.16C97.3267 69.4533 96.0267 69.6 94.84 69.6H94.08C93.9333 71.1467 93.6733 73.04 93.3 75.28C93.2067 75.3867 93.0533 75.4733 92.84 75.54C92.64 75.62 92.4667 75.66 92.32 75.66C92.1867 75.66 92.12 75.6267 92.12 75.56L92.18 75.34C92.54 74.02 92.72 72.22 92.72 69.94ZM105.407 65.64C105.22 67.4133 105.127 68.8333 105.127 69.9C105.127 71.9933 105.52 73.04 106.307 73.04C106.8 73.04 107.313 72.7067 107.847 72.04C108.38 71.36 108.847 70.3933 109.247 69.14C109.233 68.9267 109.227 68.4933 109.227 67.84C109.227 67.1867 109.287 66.52 109.407 65.84L111.007 65.14L111.507 65.42C111.067 66.7133 110.847 68.2067 110.847 69.9C110.847 70.6333 110.9 71.64 111.007 72.92C111.127 74.2 111.247 75.06 111.367 75.5C111.367 75.54 111.26 75.56 111.047 75.56C110.847 75.56 110.653 75.4667 110.467 75.28C110.067 74.32 109.727 72.8733 109.447 70.94C108.9 72.26 108.233 73.34 107.447 74.18C106.673 75.02 105.94 75.44 105.247 75.44C104.18 75.44 103.647 74.6867 103.647 73.18C103.647 72.1533 103.7 71.1867 103.807 70.28C103.927 69.3733 104.04 68.5133 104.147 67.7C104.267 66.8867 104.353 66.2667 104.407 65.84C104.473 65.7733 104.607 65.7133 104.807 65.66C105.007 65.5933 105.153 65.56 105.247 65.56C105.353 65.56 105.407 65.5867 105.407 65.64ZM114.181 60.76L115.801 61.52C115.935 62.4667 116.001 63.54 116.001 64.74C116.001 65.94 115.921 67.2933 115.761 68.8C116.308 67.7067 116.921 66.8333 117.601 66.18C118.295 65.5133 118.948 65.18 119.561 65.18C120.708 65.18 121.281 65.9333 121.281 67.44C121.281 68.64 120.948 69.8533 120.281 71.08C119.628 72.2933 118.715 73.3267 117.541 74.18C116.381 75.0333 115.141 75.5067 113.821 75.6C113.795 75.6133 113.735 75.62 113.641 75.62C113.561 75.62 113.521 75.5867 113.521 75.52C114.148 72.8533 114.461 70.2333 114.461 67.66C114.461 65.0867 114.208 62.8933 113.701 61.08L114.181 60.76ZM115.181 72.82L114.821 74.5C116.315 73.9933 117.448 73.2067 118.221 72.14C119.008 71.06 119.401 70.0333 119.401 69.06C119.401 68.0733 119.075 67.58 118.421 67.58C117.901 67.58 117.328 68.0467 116.701 68.98C116.088 69.9 115.581 71.18 115.181 72.82Z" fill="#FF651C"/>
<path d="M9.26 61.98L8.6 63.7C8.22667 63.6467 7.83333 63.62 7.42 63.62C6.48667 63.62 5.67333 63.7867 4.98 64.12C4.28667 64.44 3.76 64.8667 3.4 65.4C2.72 66.4533 2.38 67.6067 2.38 68.86C2.38 70.5 2.63333 71.7533 3.14 72.62C3.64667 73.4733 4.25333 73.9 4.96 73.9C5.86667 73.9 6.62667 73.54 7.24 72.82C7.85333 72.1 8.37333 70.9933 8.8 69.5C8.82667 69.3933 8.87333 69.34 8.94 69.34C9.12667 69.34 9.33333 69.4333 9.56 69.62C9.29333 71.4467 8.68 72.9067 7.72 74C6.77333 75.0933 5.70667 75.64 4.52 75.64C3.34667 75.64 2.4 75.12 1.68 74.08C0.96 73.04 0.6 71.6667 0.6 69.96C0.6 68.4933 0.98 67.12 1.74 65.84C2.15333 65.1333 2.66667 64.4933 3.28 63.92C3.89333 63.3467 4.68667 62.84 5.66 62.4C6.63333 61.96 7.72 61.6467 8.92 61.46L9.26 61.98ZM18.1656 65.86L17.2056 66.96C17.9523 67.8667 18.3256 69.0067 18.3256 70.38C18.3256 72.3133 17.7056 73.8 16.4656 74.84C15.8123 75.3867 15.0056 75.66 14.0456 75.66C13.099 75.66 12.2856 75.28 11.6056 74.52C10.939 73.76 10.6056 72.7133 10.6056 71.38C10.6056 69.98 11.1256 68.7067 12.1656 67.56C12.7123 66.96 13.479 66.46 14.4656 66.06C15.4656 65.66 16.6256 65.4067 17.9456 65.3L18.1656 65.86ZM14.3456 73.84C15.159 73.84 15.8323 73.4933 16.3656 72.8C16.9123 72.1067 17.1856 71.3867 17.1856 70.64C17.1856 69.0267 16.819 67.78 16.0856 66.9C15.059 67.0733 14.1923 67.5333 13.4856 68.28C12.779 69.0267 12.4256 69.8733 12.4256 70.82C12.4256 71.7667 12.5923 72.5067 12.9256 73.04C13.2723 73.5733 13.7456 73.84 14.3456 73.84ZM26.8769 70.66C26.5569 72.0067 25.9969 73.14 25.1969 74.06C24.4102 74.98 23.5969 75.44 22.7569 75.44C21.9169 75.44 21.2635 75.14 20.7969 74.54C20.3435 73.94 20.1169 73.1333 20.1169 72.12C20.1169 70.9733 20.3769 69.8933 20.8969 68.88C21.1902 68.3067 21.5635 67.7867 22.0169 67.32C22.4702 66.8533 23.0702 66.42 23.8169 66.02C24.5769 65.6067 25.4435 65.28 26.4169 65.04L26.8569 65.42L26.2169 67.2C25.7769 67.0267 25.3502 66.94 24.9369 66.94C23.9902 66.94 23.2369 67.36 22.6769 68.2C22.1169 69.04 21.8369 70.0067 21.8369 71.1C21.8369 71.8467 21.9902 72.4267 22.2969 72.84C22.6035 73.2533 22.9769 73.46 23.4169 73.46C24.4169 73.46 25.3169 72.4733 26.1169 70.5C26.1302 70.42 26.1902 70.38 26.2969 70.38C26.4169 70.38 26.6102 70.4733 26.8769 70.66ZM35.8009 65.9L35.2809 68.02C35.0543 67.9667 34.8209 67.94 34.5809 67.94C33.8209 67.94 33.0743 68.2733 32.3409 68.94C32.7276 70.0067 33.2609 71.1667 33.9409 72.42C34.6343 73.66 35.3143 74.6467 35.9809 75.38V75.4C35.9809 75.5467 35.7609 75.62 35.3209 75.62C35.2009 75.62 35.1209 75.6133 35.0809 75.6C34.3609 74.9867 33.6076 74.16 32.8209 73.12C32.0343 72.0667 31.4676 71.2 31.1209 70.52L31.1009 70.5C30.5409 71.46 30.1743 72.4733 30.0009 73.54L29.9209 73.62L29.6009 75.04C29.5209 75.1333 29.3876 75.2133 29.2009 75.28C29.0276 75.3467 28.8943 75.38 28.8009 75.38C28.7076 75.38 28.6609 75.3467 28.6609 75.28C29.2209 72.6667 29.5009 70.0867 29.5009 67.54C29.5009 64.9933 29.2409 62.84 28.7209 61.08L29.2209 60.76L30.8209 61.52C30.9543 62.52 31.0209 63.68 31.0209 65C31.0209 66.3067 30.8609 68.02 30.5409 70.14C31.7543 67.6733 33.3343 66.1333 35.2809 65.52L35.8009 65.9ZM43.0048 65.86L42.4048 67.26C41.7515 67.3933 41.0848 67.4667 40.4048 67.48C40.1515 71.0267 39.8182 73.5867 39.4048 75.16C39.2448 75.3467 38.9648 75.44 38.5648 75.44C38.4715 75.44 38.4248 75.42 38.4248 75.38C38.7182 73.4867 38.8648 71.6467 38.8648 69.86C38.8648 69.2067 38.8448 68.4 38.8048 67.44C38.0982 67.36 37.5448 67.2667 37.1448 67.16C37.0648 67.12 36.9782 66.9867 36.8848 66.76C36.8048 66.52 36.7582 66.3333 36.7448 66.2L36.8248 66.08C37.3448 66.1867 37.9848 66.24 38.7448 66.24C38.6648 64.7733 38.5915 63.7867 38.5248 63.28L39.0048 62.94L40.6248 63.8L40.5048 66.14C41.2115 66.06 41.9782 65.86 42.8048 65.54L43.0048 65.86ZM47.9806 65.84L49.6006 65.14L50.0806 65.42C49.6406 66.7133 49.4206 68.2067 49.4206 69.9C49.4206 70.62 49.4806 71.62 49.6006 72.9C49.7206 74.18 49.834 75.0467 49.9406 75.5C49.9406 75.54 49.8406 75.56 49.6406 75.56C49.4406 75.56 49.2473 75.4667 49.0606 75.28C48.634 74.2933 48.294 72.84 48.0406 70.92C47.4806 72.2533 46.8073 73.34 46.0206 74.18C45.2473 75.02 44.5473 75.44 43.9206 75.44C42.7206 75.44 42.1206 74.6867 42.1206 73.18C42.1206 72.3133 42.294 71.48 42.6406 70.68C42.9873 69.88 43.454 69.18 44.0406 68.58C45.214 67.3933 46.5273 66.48 47.9806 65.84ZM45.0006 73.04C45.4273 73.04 45.9006 72.7 46.4206 72.02C46.954 71.3267 47.4273 70.3533 47.8406 69.1C47.8273 68.9133 47.8206 68.5533 47.8206 68.02C47.8206 67.4867 47.8273 67.0933 47.8406 66.84C46.694 67.4933 45.7673 68.1933 45.0606 68.94C44.354 69.6733 44.0006 70.54 44.0006 71.54C44.0006 72.54 44.334 73.04 45.0006 73.04ZM54.5352 66.08C54.5618 66.48 54.5752 66.8933 54.5752 67.32C54.5752 69.64 54.1685 72.1933 53.3552 74.98C53.1685 75.1667 52.9152 75.26 52.5952 75.26C52.5285 75.26 52.4818 75.2533 52.4552 75.24C52.4418 75.2267 52.4418 75.2067 52.4552 75.18C52.7752 73.2733 52.9352 71.52 52.9352 69.92C52.9352 68.32 52.7685 66.88 52.4352 65.6L52.9152 65.3L54.5352 66.08ZM53.7152 64.1C53.3818 64.1 53.1218 63.9867 52.9352 63.76C52.7618 63.5333 52.6752 63.2467 52.6752 62.9C52.6752 62.5533 52.8285 62.2533 53.1352 62C53.4418 61.7333 53.8885 61.56 54.4752 61.48C54.8752 61.8133 55.0752 62.2133 55.0752 62.68C55.0752 63.1333 54.9352 63.4867 54.6552 63.74C54.3752 63.98 54.0618 64.1 53.7152 64.1ZM57.5241 60.76L59.1241 61.52C59.2707 62.5067 59.3441 63.58 59.3441 64.74C59.3441 65.8867 59.2774 67.1133 59.1441 68.42C58.8641 71.06 58.4641 73.3467 57.9441 75.28C57.8641 75.3733 57.7241 75.4533 57.5241 75.52C57.3241 75.5867 57.1641 75.62 57.0441 75.62C56.9241 75.62 56.8641 75.5867 56.8641 75.52C57.4907 72.8533 57.8041 70.22 57.8041 67.62C57.8041 65.02 57.5441 62.84 57.0241 61.08L57.5241 60.76Z" fill="#FF651C"/>
</svg>
